<mxfile host="app.diagrams.net" modified="2023-11-21T02:41:56.745Z" agent="Mozilla/5.0 (Macintosh; Intel Mac OS X 10_15_7) AppleWebKit/537.36 (KHTML, like Gecko) Chrome/119.0.0.0 Safari/537.36" etag="8IeZ6ONADiUeSRPZ-QXK" version="22.1.3" type="github">
  <diagram name="페이지-1" id="2b1QAMQZq9qK3DdkjDPY">
    <mxGraphModel dx="1826" dy="1789" grid="0" gridSize="10" guides="1" tooltips="1" connect="1" arrows="1" fold="1" page="0" pageScale="1" pageWidth="827" pageHeight="1169" math="0" shadow="0">
      <root>
        <mxCell id="0" />
        <mxCell id="1" parent="0" />
        <mxCell id="Kl5un-YwrxYnlePRHZUV-1" value="반품 주문&amp;nbsp;" style="rounded=0;whiteSpace=wrap;html=1;" vertex="1" parent="1">
          <mxGeometry x="110" y="-997" width="120" height="60" as="geometry" />
        </mxCell>
        <mxCell id="Kl5un-YwrxYnlePRHZUV-58" value="" style="edgeStyle=orthogonalEdgeStyle;rounded=0;orthogonalLoop=1;jettySize=auto;html=1;" edge="1" parent="1" source="Kl5un-YwrxYnlePRHZUV-56" target="Kl5un-YwrxYnlePRHZUV-57">
          <mxGeometry relative="1" as="geometry" />
        </mxCell>
        <mxCell id="Kl5un-YwrxYnlePRHZUV-56" value="반품 덩이 라벨&amp;nbsp;&lt;br&gt;출력" style="rounded=0;whiteSpace=wrap;html=1;" vertex="1" parent="1">
          <mxGeometry x="-162" y="-873" width="120" height="60" as="geometry" />
        </mxCell>
        <mxCell id="Kl5un-YwrxYnlePRHZUV-60" value="" style="edgeStyle=orthogonalEdgeStyle;rounded=0;orthogonalLoop=1;jettySize=auto;html=1;" edge="1" parent="1" source="Kl5un-YwrxYnlePRHZUV-57" target="Kl5un-YwrxYnlePRHZUV-59">
          <mxGeometry relative="1" as="geometry" />
        </mxCell>
        <mxCell id="Kl5un-YwrxYnlePRHZUV-57" value="반품 입고 검수 스캔" style="rounded=0;whiteSpace=wrap;html=1;" vertex="1" parent="1">
          <mxGeometry x="-162" y="-733" width="120" height="60" as="geometry" />
        </mxCell>
        <mxCell id="Kl5un-YwrxYnlePRHZUV-65" value="" style="edgeStyle=orthogonalEdgeStyle;rounded=0;orthogonalLoop=1;jettySize=auto;html=1;" edge="1" parent="1" source="Kl5un-YwrxYnlePRHZUV-59" target="Kl5un-YwrxYnlePRHZUV-64">
          <mxGeometry relative="1" as="geometry" />
        </mxCell>
        <mxCell id="Kl5un-YwrxYnlePRHZUV-67" value="" style="edgeStyle=orthogonalEdgeStyle;rounded=0;orthogonalLoop=1;jettySize=auto;html=1;" edge="1" parent="1" source="Kl5un-YwrxYnlePRHZUV-59" target="Kl5un-YwrxYnlePRHZUV-64">
          <mxGeometry relative="1" as="geometry" />
        </mxCell>
        <mxCell id="Kl5un-YwrxYnlePRHZUV-59" value="팀별 분류" style="rounded=0;whiteSpace=wrap;html=1;" vertex="1" parent="1">
          <mxGeometry x="38" y="-733" width="120" height="60" as="geometry" />
        </mxCell>
        <mxCell id="Kl5un-YwrxYnlePRHZUV-78" style="edgeStyle=orthogonalEdgeStyle;rounded=0;orthogonalLoop=1;jettySize=auto;html=1;" edge="1" parent="1" source="Kl5un-YwrxYnlePRHZUV-61">
          <mxGeometry relative="1" as="geometry">
            <mxPoint x="54.5" y="-590" as="targetPoint" />
          </mxGeometry>
        </mxCell>
        <mxCell id="Kl5un-YwrxYnlePRHZUV-61" value="반품 입고 도서 스캔" style="rounded=0;whiteSpace=wrap;html=1;" vertex="1" parent="1">
          <mxGeometry x="-162" y="-652" width="120" height="60" as="geometry" />
        </mxCell>
        <mxCell id="Kl5un-YwrxYnlePRHZUV-63" value="" style="endArrow=none;dashed=1;html=1;dashPattern=1 3;strokeWidth=2;rounded=0;exitX=0.5;exitY=0;exitDx=0;exitDy=0;" edge="1" parent="1" source="Kl5un-YwrxYnlePRHZUV-61" target="Kl5un-YwrxYnlePRHZUV-57">
          <mxGeometry width="50" height="50" relative="1" as="geometry">
            <mxPoint x="161" y="-692" as="sourcePoint" />
            <mxPoint x="211" y="-742" as="targetPoint" />
          </mxGeometry>
        </mxCell>
        <mxCell id="Kl5un-YwrxYnlePRHZUV-64" value="재생 대기" style="rounded=0;whiteSpace=wrap;html=1;" vertex="1" parent="1">
          <mxGeometry x="187" y="-875" width="120" height="60" as="geometry" />
        </mxCell>
        <mxCell id="Kl5un-YwrxYnlePRHZUV-70" value="" style="edgeStyle=orthogonalEdgeStyle;rounded=0;orthogonalLoop=1;jettySize=auto;html=1;" edge="1" parent="1" source="Kl5un-YwrxYnlePRHZUV-68" target="Kl5un-YwrxYnlePRHZUV-69">
          <mxGeometry relative="1" as="geometry" />
        </mxCell>
        <mxCell id="Kl5un-YwrxYnlePRHZUV-68" value="서점/반품등록/&lt;br&gt;플랫폼접수" style="rounded=0;whiteSpace=wrap;html=1;" vertex="1" parent="1">
          <mxGeometry x="-225" y="-491" width="120" height="60" as="geometry" />
        </mxCell>
        <mxCell id="Kl5un-YwrxYnlePRHZUV-72" value="" style="edgeStyle=orthogonalEdgeStyle;rounded=0;orthogonalLoop=1;jettySize=auto;html=1;" edge="1" parent="1" source="Kl5un-YwrxYnlePRHZUV-69" target="Kl5un-YwrxYnlePRHZUV-71">
          <mxGeometry relative="1" as="geometry" />
        </mxCell>
        <mxCell id="Kl5un-YwrxYnlePRHZUV-69" value="입고 예정" style="rounded=0;whiteSpace=wrap;html=1;" vertex="1" parent="1">
          <mxGeometry x="-25" y="-491" width="120" height="60" as="geometry" />
        </mxCell>
        <mxCell id="Kl5un-YwrxYnlePRHZUV-74" value="" style="edgeStyle=orthogonalEdgeStyle;rounded=0;orthogonalLoop=1;jettySize=auto;html=1;" edge="1" parent="1" source="Kl5un-YwrxYnlePRHZUV-71" target="Kl5un-YwrxYnlePRHZUV-73">
          <mxGeometry relative="1" as="geometry" />
        </mxCell>
        <mxCell id="Kl5un-YwrxYnlePRHZUV-71" value="운송" style="rounded=0;whiteSpace=wrap;html=1;" vertex="1" parent="1">
          <mxGeometry x="175" y="-491" width="120" height="60" as="geometry" />
        </mxCell>
        <mxCell id="Kl5un-YwrxYnlePRHZUV-76" value="" style="edgeStyle=orthogonalEdgeStyle;rounded=0;orthogonalLoop=1;jettySize=auto;html=1;" edge="1" parent="1" source="Kl5un-YwrxYnlePRHZUV-73" target="Kl5un-YwrxYnlePRHZUV-75">
          <mxGeometry relative="1" as="geometry" />
        </mxCell>
        <mxCell id="Kl5un-YwrxYnlePRHZUV-73" value="도착 인수" style="rounded=0;whiteSpace=wrap;html=1;" vertex="1" parent="1">
          <mxGeometry x="375" y="-491" width="120" height="60" as="geometry" />
        </mxCell>
        <mxCell id="Kl5un-YwrxYnlePRHZUV-82" value="" style="edgeStyle=orthogonalEdgeStyle;rounded=0;orthogonalLoop=1;jettySize=auto;html=1;" edge="1" parent="1" source="Kl5un-YwrxYnlePRHZUV-75" target="Kl5un-YwrxYnlePRHZUV-81">
          <mxGeometry relative="1" as="geometry" />
        </mxCell>
        <mxCell id="Kl5un-YwrxYnlePRHZUV-75" value="덩이라벨&lt;br&gt;자동 출력" style="rounded=0;whiteSpace=wrap;html=1;" vertex="1" parent="1">
          <mxGeometry x="375" y="-351" width="120" height="60" as="geometry" />
        </mxCell>
        <mxCell id="Kl5un-YwrxYnlePRHZUV-79" value="반품전표 전송/&lt;br&gt;포장 덩이 정보 전송" style="rounded=0;whiteSpace=wrap;html=1;" vertex="1" parent="1">
          <mxGeometry x="-225" y="-390" width="120" height="57" as="geometry" />
        </mxCell>
        <mxCell id="Kl5un-YwrxYnlePRHZUV-84" value="" style="edgeStyle=orthogonalEdgeStyle;rounded=0;orthogonalLoop=1;jettySize=auto;html=1;" edge="1" parent="1" source="Kl5un-YwrxYnlePRHZUV-81" target="Kl5un-YwrxYnlePRHZUV-83">
          <mxGeometry relative="1" as="geometry" />
        </mxCell>
        <mxCell id="Kl5un-YwrxYnlePRHZUV-81" value="전표 스캔" style="rounded=0;whiteSpace=wrap;html=1;" vertex="1" parent="1">
          <mxGeometry x="-18" y="-252" width="120" height="60" as="geometry" />
        </mxCell>
        <mxCell id="Kl5un-YwrxYnlePRHZUV-86" value="" style="edgeStyle=orthogonalEdgeStyle;rounded=0;orthogonalLoop=1;jettySize=auto;html=1;" edge="1" parent="1" source="Kl5un-YwrxYnlePRHZUV-83" target="Kl5un-YwrxYnlePRHZUV-85">
          <mxGeometry relative="1" as="geometry" />
        </mxCell>
        <mxCell id="Kl5un-YwrxYnlePRHZUV-83" value="명세서 가져옴" style="rounded=0;whiteSpace=wrap;html=1;" vertex="1" parent="1">
          <mxGeometry x="-18" y="-112" width="120" height="60" as="geometry" />
        </mxCell>
        <mxCell id="Kl5un-YwrxYnlePRHZUV-85" value="도서 스캔 검수" style="rounded=0;whiteSpace=wrap;html=1;" vertex="1" parent="1">
          <mxGeometry x="-282" y="-112" width="120" height="60" as="geometry" />
        </mxCell>
        <mxCell id="Kl5un-YwrxYnlePRHZUV-87" value="" style="endArrow=none;dashed=1;html=1;dashPattern=1 3;strokeWidth=2;rounded=0;exitX=0.5;exitY=0;exitDx=0;exitDy=0;entryX=0.5;entryY=1;entryDx=0;entryDy=0;" edge="1" parent="1" source="Kl5un-YwrxYnlePRHZUV-79" target="Kl5un-YwrxYnlePRHZUV-68">
          <mxGeometry width="50" height="50" relative="1" as="geometry">
            <mxPoint x="-172" y="-639" as="sourcePoint" />
            <mxPoint x="-172" y="-660" as="targetPoint" />
          </mxGeometry>
        </mxCell>
        <mxCell id="Kl5un-YwrxYnlePRHZUV-89" value="" style="endArrow=none;dashed=1;html=1;dashPattern=1 3;strokeWidth=2;rounded=0;" edge="1" parent="1">
          <mxGeometry width="50" height="50" relative="1" as="geometry">
            <mxPoint x="-285" y="-458" as="sourcePoint" />
            <mxPoint x="-227" y="-458" as="targetPoint" />
          </mxGeometry>
        </mxCell>
        <mxCell id="Kl5un-YwrxYnlePRHZUV-90" value="변환/호환" style="rounded=0;whiteSpace=wrap;html=1;" vertex="1" parent="1">
          <mxGeometry x="-407" y="-491" width="120" height="60" as="geometry" />
        </mxCell>
      </root>
    </mxGraphModel>
  </diagram>
</mxfile>
